<?xml version="1.0" standalone="no"?>
<!DOCTYPE svg PUBLIC "-//W3C//DTD SVG 20010904//EN"
 "http://www.w3.org/TR/2001/REC-SVG-20010904/DTD/svg10.dtd">
<svg version="1.0" xmlns="http://www.w3.org/2000/svg"
 width="400.000000pt" height="400.000000pt" viewBox="0 0 400.000000 400.000000"
 preserveAspectRatio="xMidYMid meet">
<metadata>
Created by potrace 1.11, written by Peter Selinger 2001-2013
</metadata>
<g transform="translate(0.000000,400.000000) scale(0.100000,-0.100000)"
fill="#000000" stroke="none">
<path d="M5 3988 c-3 -7 -4 -906 -3 -1998 l3 -1985 1995 0 1995 0 0 1995 0
1995 -1993 3 c-1589 2 -1994 0 -1997 -10z m3720 -167 c51 -23 101 -80 115
-130 7 -27 9 -562 8 -1718 -3 -1854 2 -1702 -65 -1764 -62 -58 60 -54 -1756
-57 -1156 -1 -1691 1 -1718 8 -50 14 -107 64 -130 115 -18 38 -19 117 -19
1721 l0 1682 28 53 c22 43 38 59 81 81 l53 28 1682 0 c1604 0 1683 -1 1721
-19z"/>
<path d="M315 3750 c-11 -4 -31 -20 -45 -35 l-25 -27 -3 -1681 c-2 -1673 -2
-1682 18 -1715 41 -66 -78 -62 1747 -62 1558 0 1660 1 1693 18 20 10 42 32 52
52 17 33 18 135 18 1693 0 1825 4 1706 -62 1747 -33 20 -45 20 -1703 19 -919
0 -1679 -4 -1690 -9z m3293 -1052 l2 -898 -600 0 -600 0 0 900 0 900 598 -2
597 -3 3 -897z m-2751 490 c78 -161 145 -292 149 -292 5 1 71 133 149 293
l140 291 158 0 158 0 -231 -453 -230 -454 0 -291 0 -292 -145 0 -145 0 0 296
0 295 -121 237 c-67 130 -171 333 -231 450 l-109 212 159 0 159 0 140 -292z
m1171 -1025 l-3 -158 -157 -3 -158 -3 0 161 0 160 160 0 161 0 -3 -157z"/>
</g>
</svg>
